<?xml version="1.0" encoding="iso-8859-1"?>
<!-- Generator: Adobe Illustrator 19.0.0, SVG Export Plug-In . SVG Version: 6.00 Build 0)  -->
<svg version="1.1" id="Layer_1" xmlns="http://www.w3.org/2000/svg" xmlns:xlink="http://www.w3.org/1999/xlink" x="0px" y="0px"
	 viewBox="0 0 511.999 511.999" style="enable-background:new 0 0 511.999 511.999;" xml:space="preserve">
<polygon style="fill:#FCD559;" points="398.96,8.148 255.856,8.148 112.753,8.148 112.753,393.498 398.96,393.498 "/>
<polygon style="fill:#E2B844;" points="154.083,8.148 133.419,8.148 112.753,8.148 112.753,393.498 154.083,393.498 "/>
<path style="fill:#F7729B;" d="M271.729,437.437l-15.873-15.873l-15.873,15.873c-8.766,8.766-8.766,22.979,0,31.745l0,0
	c8.766,8.766,22.979,8.766,31.745,0l0,0C280.496,460.416,280.496,446.203,271.729,437.437z"/>
<path style="fill:#FCE195;" d="M341.651,210.599l0.806-0.806c23.691-23.691,23.691-62.103,0-85.794l0,0
	c-23.692-23.692-62.103-23.691-85.794,0l-0.806,0.806l-0.806-0.806c-23.692-23.692-62.103-23.692-85.795,0l0,0
	c-23.692,23.692-23.691,62.103,0,85.795l0.806,0.806l85.795,85.795L341.651,210.599z"/>
<path d="M234.127,475.52c5.842,5.842,13.61,9.06,21.873,9.06c8.262,0,16.03-3.218,21.872-9.06c5.844-5.842,9.061-13.61,9.061-21.873
	c0-8.262-3.218-16.03-9.06-21.873L262,415.901c-1.592-1.592-3.749-2.486-6.001-2.486s-4.408,0.894-6,2.486l-15.874,15.873
	C222.065,443.835,222.065,463.459,234.127,475.52z M246.125,443.774l9.875-9.873l9.872,9.873h0.001
	c2.637,2.637,4.089,6.143,4.089,9.872s-1.452,7.236-4.09,9.873c-2.636,2.637-6.143,4.09-9.872,4.09c-3.73,0-7.236-1.453-9.873-4.09
	C240.682,458.075,240.682,449.218,246.125,443.774z"/>
<path d="M347.369,118.945c-24.951-24.952-64.574-26.52-91.37-4.701c-26.799-21.821-66.416-20.252-91.372,4.701
	c-26.625,26.627-26.625,69.95,0,96.576l85.371,85.371c1.657,1.656,3.83,2.486,6.001,2.486c2.171,0,4.343-0.828,6.001-2.486
	l37.963-37.963c3.314-3.314,3.314-8.687,0-11.999c-3.315-3.314-8.687-3.314-12,0l-31.962,31.962l-79.37-79.37
	c-20.009-20.009-20.009-52.567,0-72.576s52.567-20.008,72.577,0.002l0.794,0.794c3.315,3.312,8.684,3.312,11.998-0.002l0.794-0.794
	c20.009-20.009,52.566-20.008,72.574,0c9.694,9.692,15.031,22.58,15.031,36.288s-5.338,26.595-15.031,36.289l-21.951,21.952
	c-3.314,3.314-3.314,8.687,0,11.999c3.315,3.314,8.687,3.314,12,0l21.95-21.952c12.899-12.898,20.003-30.047,20.003-48.288
	C367.371,148.991,360.268,131.842,347.369,118.945z"/>
<path d="M411.261,350.364h-3.674V51.955h3.674c4.687,0,8.485-3.799,8.485-8.485s-3.798-8.485-8.485-8.485h-3.674V8.485
	c0-4.686-3.798-8.485-8.485-8.485H112.897c-4.687,0-8.485,3.799-8.485,8.485v26.499h-3.674c-4.687,0-8.485,3.799-8.485,8.485
	s3.798,8.485,8.485,8.485h3.674v298.409h-3.674c-4.687,0-8.485,3.799-8.485,8.485c0,4.686,3.798,8.485,8.485,8.485h3.674v26.499
	c0,4.686,3.798,8.485,8.485,8.485h13.213l87.906,91.76c11.069,11.556,25.98,17.92,41.982,17.92c0.001,0,0,0,0.001,0
	c16.002,0,30.912-6.364,41.983-17.92l87.906-91.76h13.213c4.687,0,8.485-3.799,8.485-8.485v-26.499h3.674
	c4.687,0,8.485-3.799,8.485-8.485C419.746,354.163,415.948,350.364,411.261,350.364z M121.382,51.955h192.321
	c4.687,0,8.485-3.799,8.485-8.485s-3.798-8.485-8.485-8.485H121.382V16.971h269.235v18.014h-45.236
	c-4.687,0-8.485,3.799-8.485,8.485s3.798,8.485,8.485,8.485h45.236v298.409H121.382V51.955z M285.727,482.34
	c-7.839,8.183-18.397,12.689-29.729,12.689c-11.332,0-21.889-4.506-29.727-12.689l-76.659-80.021h212.775L285.727,482.34z
	 M390.617,385.35H121.382v-18.014h269.235V385.35z"/>
<g>
</g>
<g>
</g>
<g>
</g>
<g>
</g>
<g>
</g>
<g>
</g>
<g>
</g>
<g>
</g>
<g>
</g>
<g>
</g>
<g>
</g>
<g>
</g>
<g>
</g>
<g>
</g>
<g>
</g>
</svg>
